<?xml version="1.0" standalone="no"?>
<!DOCTYPE svg PUBLIC "-//W3C//DTD SVG 20010904//EN"
 "http://www.w3.org/TR/2001/REC-SVG-20010904/DTD/svg10.dtd">
<svg version="1.0" xmlns="http://www.w3.org/2000/svg"
 width="800.000000pt" height="800.000000pt" viewBox="0 0 800.000000 800.000000"
 preserveAspectRatio="xMidYMid meet">
<metadata>
Created by potrace 1.14, written by Peter Selinger 2001-2017
</metadata>
<g transform="translate(0.000000,800.000000) scale(0.100000,-0.100000)"
fill="#000000" stroke="none">
<path d="M3950 7313 c-25 -43 -50 -87 -57 -98 -7 -11 -16 -27 -20 -35 -4 -8
-33 -59 -65 -113 -32 -54 -58 -101 -58 -105 0 -3 -6 -13 -14 -21 -8 -9 -27
-40 -42 -69 -16 -29 -33 -61 -39 -70 -5 -9 -25 -44 -44 -77 -36 -63 -146 -253
-211 -365 -21 -36 -86 -148 -144 -250 -58 -102 -110 -192 -116 -200 -5 -8 -35
-60 -66 -115 -31 -55 -69 -120 -84 -145 -15 -25 -63 -108 -107 -185 -152 -264
-305 -530 -354 -613 -27 -45 -49 -85 -49 -89 0 -3 -6 -14 -14 -22 -7 -9 -31
-47 -51 -86 -21 -38 -41 -74 -45 -80 -4 -5 -61 -102 -125 -215 -65 -113 -137
-236 -160 -275 -23 -38 -45 -77 -48 -85 -4 -8 -16 -30 -27 -48 -11 -18 -73
-124 -137 -235 -64 -111 -167 -291 -229 -399 -63 -108 -123 -212 -133 -230
-11 -18 -32 -55 -46 -83 -15 -27 -32 -57 -39 -65 -6 -8 -16 -24 -22 -35 -28
-52 -247 -431 -254 -440 -4 -5 -24 -41 -45 -80 -20 -38 -44 -77 -51 -86 -8 -8
-14 -18 -14 -21 0 -3 -97 -173 -216 -379 -119 -206 -225 -390 -236 -409 -11
-19 -81 -141 -156 -270 -75 -129 -175 -304 -224 -388 -48 -84 -88 -155 -88
-157 0 -3 1746 -5 3879 -5 l3879 0 -215 373 c-118 204 -218 377 -223 382 -4 6
-23 39 -43 75 -29 55 -418 729 -842 1460 -193 333 -401 693 -427 740 -26 46
-87 152 -118 205 -41 70 -274 473 -293 505 -10 19 -62 109 -115 200 -145 251
-163 282 -184 320 -28 49 -338 584 -486 840 -69 118 -134 231 -145 250 -32 57
-278 482 -298 515 -10 17 -23 41 -29 54 -6 13 -19 35 -29 50 -10 14 -31 49
-45 76 -15 28 -35 64 -45 80 -16 27 -59 99 -111 190 -9 17 -49 85 -88 152 -39
67 -85 148 -102 180 -18 32 -35 61 -39 66 -4 4 -27 -28 -51 -70z"/>
</g>
</svg>
